PathFileType	4	(x/y/z)	S01_PSF_T06.trc
DataRate	CameraRate	NumFrames	NumMarkers	Units	OrigDataRate	OrigDataStartFrame	OrigNumFrames
240	240	4	51	mm	240	118	471
Frame#	Time	Sternum			R.Acromium			L.Acromium			Top.Head			R.ASIS			L.ASIS			R.PSIS			L.PSIS			R.Great.Tro			L.Great.Tro			R.Iliac.Crest			L.Iliac.Crest			V.Sacral			R.Thigh.Upper.Post			R.Thigh.Lower.Ant			R.Thigh.Lower.Post			R.Thigh.Upper.Ant			R.Knee.Lat			R.Knee.Med			R.Shank.Upper.Post			R.Shank.Lower.Ant			R.Shank.Lower.Post			R.Shank.Upper.Ant			R.Ankle.Lat			R.Ankle.Med			R.Heel.Upper			R.Heel.Med			R.Heel.Lat			R.Toe.Lat			R.Toe.Med			R.Toe.Tip			L.Thigh.Upper.Post			L.Thigh.Lower.Ant			L.Thigh.Lower.Post			L.Thigh.Upper.Ant			L.Knee.Lat			L.Knee.Med			L.Shank.Upper.Post			L.Shank.Lower.Ant			L.Shank.Lower.Post			L.Shank.Upper.Ant			L.Ankle.Lat			L.Ankle.Med			L.Heel.Upper			L.Heel.Med			L.Heel.Lat			L.Toe.Lat			L.Toe.Med			L.Toe.Tip			Cervical.Spine			Back			
		X1	Y1	Z1	X2	Y2	Z2	X3	Y3	Z3	X4	Y4	Z4	X5	Y5	Z5	X6	Y6	Z6	X7	Y7	Z7	X8	Y8	Z8	X9	Y9	Z9	X10	Y10	Z10	X11	Y11	Z11	X12	Y12	Z12	X13	Y13	Z13	X14	Y14	Z14	X15	Y15	Z15	X16	Y16	Z16	X17	Y17	Z17	X18	Y18	Z18	X19	Y19	Z19	X20	Y20	Z20	X21	Y21	Z21	X22	Y22	Z22	X23	Y23	Z23	X24	Y24	Z24	X25	Y25	Z25	X26	Y26	Z26	X27	Y27	Z27	X28	Y28	Z28	X29	Y29	Z29	X30	Y30	Z30	X31	Y31	Z31	X32	Y32	Z32	X33	Y33	Z33	X34	Y34	Z34	X35	Y35	Z35	X36	Y36	Z36	X37	Y37	Z37	X38	Y38	Z38	X39	Y39	Z39	X40	Y40	Z40	X41	Y41	Z41	X42	Y42	Z42	X43	Y43	Z43	X44	Y44	Z44	X45	Y45	Z45	X46	Y46	Z46	X47	Y47	Z47	X48	Y48	Z48	X49	Y49	Z49	X50	Y50	Z50	X51	Y51	Z51	

118	0.4875	-655.67	1231.1	246.09	-767.5	1481.9	425.34	-778.65	1501.9	94.752	-711.14	1806.7	257.07	-704.93	987.57	389.77	-704.89	984.08	122.6	-944.78	1023.5	305.27	-949.39	1030.8	203.12	-773.91	934.36	473.57	-824.72	944.49	47.492	-791.03	1078.5	461.46	-815.52	1068	51.02	-960.91	992.13	249.81	-658.03	652.19	439.28	-565.23	620.41	406.1	-617.44	575.63	413.54	-603.17	699.29	431.08	-569.57	530.85	406.6	-575.05	536.2	262.06	-586.64	364.38	423.29	-511.88	296.77	377.91	-576.9	295.12	410.55	-525.53	366.73	396.61	-537.66	101.15	371.07	-505.21	111.76	278.18	-601.24	66.761	306.85	-580.46	39.051	278.88	-587.54	38.646	343.31	-400.32	46.91	406.86	-365.94	60.913	285.32	-308.31	87.949	342.23	-930.04	686.92	78.249	-864.5	597.55	69.521	-941.51	597.37	92.671	-862.27	691.99	53.882	-925.87	504.88	75.428	-886.11	492.59	215.82	-1050	413.02	66.879	-1043.9	303.98	86.969	-1091.6	346.37	72.555	-1001.9	369.32	75.954	-1213.5	158.73	115.21	-1180.1	165.1	210.93	-1290.9	164.36	165.29	-1287.7	140.77	200.65	-1294.6	134.9	139.5	-1111.7	40.103	108.95	-1086.7	47.252	231.36	-1023.3	42.133	179.67	-853.17	1556.5	264.19	-960.38	1248.3	270.93
119	0.49167	-649.22	1231.5	246.74	-761.16	1481.9	426.55	-772.64	1502.5	95.964	-705.19	1807	258.75	-698.13	988.15	390.18	-698.58	984.23	123.16	-938.2	1023.8	305.95	-942.84	1030.7	203.76	-766.91	935.06	474.07	-818.31	944.07	48.167	-783.95	1078.9	462.11	-808.76	1068.4	51.756	-954.29	992.12	250.59	-651.12	652.71	439.76	-558.33	620.9	406.58	-610.55	576.14	414.03	-596.22	699.78	431.67	-562.69	531.19	406.92	-568.41	536.8	262.59	-581.36	364.75	423.86	-507.66	296.29	377.96	-572.49	295.39	411.06	-520.39	366.4	396.78	-536.3	101.06	371.16	-503.96	111.32	278.2	-600.61	67.426	307.03	-580.19	39.499	279.02	-587.24	39.098	343.45	-399.63	45.12	406.8	-365.13	58.445	285.14	-306.96	84.607	341.97	-922.4	685.9	78.532	-856.27	596.97	69.006	-933.12	596.2	92.623	-854.77	691.52	53.878	-917.15	504.1	74.796	-876.38	491.22	214.83	-1042.2	414.2	66.596	-1037.8	305.02	86.283	-1084.9	348.21	72.355	-994.92	369.69	75.299	-1209.1	162.1	114.77	-1175.3	167.87	210.35	-1286	170.12	165.11	-1283.4	146.78	200.62	-1290.7	140.71	139.54	-1111.2	40.648	109.03	-1086	47.827	231.38	-1023	41.434	179.53	-847.05	1556.7	265.6	-953.95	1248.4	271.89
120	0.49583	-642.81	1232	247.39	-754.83	1482	427.74	-766.63	1503.1	97.178	-699.25	1807.4	260.43	-691.36	988.81	390.62	-692.29	984.47	123.75	-931.65	1024.1	306.61	-936.31	1030.6	204.37	-759.99	935.83	474.58	-811.88	943.68	48.862	-776.96	1079.5	462.73	-802	1069	52.522	-947.69	992.17	251.35	-644.32	653.19	440.29	-551.55	621.35	407.12	-603.8	576.62	414.56	-589.37	700.23	432.34	-555.97	531.5	407.28	-561.78	537.4	263.15	-576.25	365.11	424.44	-503.59	295.82	378.04	-568.23	295.65	411.56	-515.4	366.06	396.98	-535.04	100.99	371.25	-502.84	110.95	278.22	-600.04	68.047	307.21	-579.94	39.932	279.16	-586.95	39.524	343.59	-398.99	43.533	406.77	-364.41	56.174	284.98	-305.76	81.524	341.72	-914.63	684.85	78.768	-847.86	596.4	68.429	-924.55	594.99	92.514	-847.14	691.05	53.833	-908.19	503.32	74.089	-866.36	489.81	213.75	-1034.2	415.4	66.266	-1031.4	306.11	85.557	-1077.9	350.09	72.125	-987.65	370.08	74.596	-1204.3	165.61	114.33	-1170.2	170.76	209.77	-1280.6	176.09	164.93	-1278.7	153.03	200.6	-1286.4	146.77	139.58	-1110.6	41.308	109.11	-1085.2	48.499	231.38	-1022.6	40.689	179.36	-840.93	1557	266.99	-947.53	1248.6	272.84
121	0.5	-636.43	1232.6	248.03	-748.49	1482.2	428.91	-760.63	1503.9	98.392	-693.32	1807.8	262.1	-684.63	989.53	391.1	-686.02	984.77	124.38	-925.13	1024.5	307.25	-929.8	1030.6	204.97	-753.14	936.64	475.11	-805.46	943.32	49.578	-770.07	1080.1	463.35	-795.25	1069.7	53.319	-941.12	992.26	252.08	-637.65	653.65	440.88	-544.9	621.74	407.73	-597.2	577.06	415.12	-582.63	700.63	433.07	-549.41	531.75	407.68	-555.19	537.98	263.74	-571.31	365.45	424.99	-499.69	295.35	378.14	-564.13	295.91	412.05	-510.58	365.72	397.21	-533.88	100.94	371.32	-501.82	110.63	278.23	-599.5	68.619	307.38	-579.71	40.344	279.29	-586.68	39.921	343.72	-398.41	42.14	406.76	-363.77	54.097	284.83	-304.68	78.699	341.48	-906.72	683.75	78.953	-839.28	595.85	67.792	-915.8	593.75	92.344	-839.37	690.59	53.747	-899	502.52	73.31	-856.06	488.38	212.59	-1025.8	416.62	65.888	-1024.7	307.25	84.796	-1070.5	352.01	71.864	-980.11	370.49	73.848	-1199.3	169.26	113.88	-1164.9	173.74	209.17	-1274.9	182.28	164.75	-1273.7	159.51	200.58	-1281.8	153.07	139.63	-1110	42.101	109.19	-1084.2	49.276	231.35	-1022.2	39.902	179.16	-834.83	1557.3	268.38	-941.11	1248.8	273.8
